HIERARCHY
ROOT mixamorig:Hips
{
	OFFSET -0.000008 104.274872 1.554316
	CHANNELS 6 Xposition Yposition Zposition Xrotation Yrotation Zrotation
	JOINT mixamorig:Spine
	{
		OFFSET -0.000005 10.181595 0.131519
		CHANNELS 6 Xposition Yposition Zposition Xrotation Yrotation Zrotation
		JOINT mixamorig:Spine1
		{
			OFFSET -0.000000 9.893959 -1.470707
			CHANNELS 6 Xposition Yposition Zposition Xrotation Yrotation Zrotation
			JOINT mixamorig:Spine2
			{
				OFFSET -0.000000 9.220757 -1.370641
				CHANNELS 6 Xposition Yposition Zposition Xrotation Yrotation Zrotation
				JOINT mixamorig:Neck
				{
					OFFSET 0.000001 16.740417 -2.049036
					CHANNELS 6 Xposition Yposition Zposition Xrotation Yrotation Zrotation
					JOINT mixamorig:Head
					{
						OFFSET 0.000000 9.617874 1.685006
						CHANNELS 6 Xposition Yposition Zposition Xrotation Yrotation Zrotation
						JOINT mixamorig:HeadTop_End
						{
							OFFSET 0.000002 22.037354 7.501101
							CHANNELS 6 Xposition Yposition Zposition Xrotation Yrotation Zrotation
							End Site
							{
								OFFSET 0.000168 2310.654297 -282.823242
							}
						}
					}
				}
				JOINT mixamorig:RightShoulder
				{
					OFFSET -4.569970 11.014908 -2.160885
					CHANNELS 6 Xposition Yposition Zposition Xrotation Yrotation Zrotation
					JOINT mixamorig:RightArm
					{
						OFFSET -10.592851 -0.524811 -2.232101
						CHANNELS 6 Xposition Yposition Zposition Xrotation Yrotation Zrotation
						JOINT mixamorig:RightForeArm
						{
							OFFSET -27.841511 0.000031 -0.000004
							CHANNELS 6 Xposition Yposition Zposition Xrotation Yrotation Zrotation
							JOINT mixamorig:RightHand
							{
								OFFSET -28.328831 -0.000015 0.000015
								CHANNELS 6 Xposition Yposition Zposition Xrotation Yrotation Zrotation
								JOINT mixamorig:RightHandThumb1
								{
									OFFSET -2.464806 -1.573990 2.681852
									CHANNELS 6 Xposition Yposition Zposition Xrotation Yrotation Zrotation
									JOINT mixamorig:RightHandThumb2
									{
										OFFSET -3.215179 -1.872803 1.924282
										CHANNELS 6 Xposition Yposition Zposition Xrotation Yrotation Zrotation
										JOINT mixamorig:RightHandThumb3
										{
											OFFSET -2.654831 -1.527969 1.512609
											CHANNELS 6 Xposition Yposition Zposition Xrotation Yrotation Zrotation
											JOINT mixamorig:RightHandThumb4
											{
												OFFSET -2.018814 -1.152008 1.108052
												CHANNELS 6 Xposition Yposition Zposition Xrotation Yrotation Zrotation
												End Site
												{
													OFFSET -188.809540 -114.533607 132.431396
												}
											}
										}
									}
								}
								JOINT mixamorig:RightHandIndex1
								{
									OFFSET -9.108284 -0.517868 2.259835
									CHANNELS 6 Xposition Yposition Zposition Xrotation Yrotation Zrotation
									JOINT mixamorig:RightHandIndex2
									{
										OFFSET -3.699989 0.000000 0.001215
										CHANNELS 6 Xposition Yposition Zposition Xrotation Yrotation Zrotation
										JOINT mixamorig:RightHandIndex3
										{
											OFFSET -2.850006 0.000031 -0.000522
											CHANNELS 6 Xposition Yposition Zposition Xrotation Yrotation Zrotation
											JOINT mixamorig:RightHandIndex4
											{
												OFFSET -2.772186 -0.000015 -0.000020
												CHANNELS 6 Xposition Yposition Zposition Xrotation Yrotation Zrotation
												End Site
												{
													OFFSET -277.218445 0.000000 -0.050231
												}
											}
										}
									}
								}
								JOINT mixamorig:RightHandMiddle1
								{
									OFFSET -9.532516 -0.000031 -0.000023
									CHANNELS 6 Xposition Yposition Zposition Xrotation Yrotation Zrotation
									JOINT mixamorig:RightHandMiddle2
									{
										OFFSET -3.700005 -0.000015 0.003713
										CHANNELS 6 Xposition Yposition Zposition Xrotation Yrotation Zrotation
										JOINT mixamorig:RightHandMiddle3
										{
											OFFSET -2.949974 0.000015 -0.002054
											CHANNELS 6 Xposition Yposition Zposition Xrotation Yrotation Zrotation
											JOINT mixamorig:RightHandMiddle4
											{
												OFFSET -2.946640 0.000000 -0.000156
												CHANNELS 6 Xposition Yposition Zposition Xrotation Yrotation Zrotation
												End Site
												{
													OFFSET -294.664337 0.000000 -0.113670
												}
											}
										}
									}
								}
								JOINT mixamorig:RightHandRing1
								{
									OFFSET -9.103600 -0.043076 -1.865134
									CHANNELS 6 Xposition Yposition Zposition Xrotation Yrotation Zrotation
									JOINT mixamorig:RightHandRing2
									{
										OFFSET -3.379288 0.000000 -0.001055
										CHANNELS 6 Xposition Yposition Zposition Xrotation Yrotation Zrotation
										JOINT mixamorig:RightHandRing3
										{
											OFFSET -2.889687 -0.000015 0.000379
											CHANNELS 6 Xposition Yposition Zposition Xrotation Yrotation Zrotation
											JOINT mixamorig:RightHandRing4
											{
												OFFSET -2.638809 -0.000015 0.000941
												CHANNELS 6 Xposition Yposition Zposition Xrotation Yrotation Zrotation
												End Site
												{
													OFFSET -263.880371 0.000000 0.516020
												}
											}
										}
									}
								}
								JOINT mixamorig:RightHandPinky1
								{
									OFFSET -8.076683 -0.486710 -3.806280
									CHANNELS 6 Xposition Yposition Zposition Xrotation Yrotation Zrotation
									JOINT mixamorig:RightHandPinky2
									{
										OFFSET -3.600014 -0.000015 -0.003747
										CHANNELS 6 Xposition Yposition Zposition Xrotation Yrotation Zrotation
										JOINT mixamorig:RightHandPinky3
										{
											OFFSET -2.099983 0.000000 -0.005739
											CHANNELS 6 Xposition Yposition Zposition Xrotation Yrotation Zrotation
											JOINT mixamorig:RightHandPinky4
											{
												OFFSET -2.115768 -0.000031 -0.003680
												CHANNELS 6 Xposition Yposition Zposition Xrotation Yrotation Zrotation
												End Site
												{
													OFFSET -211.577087 0.000000 -0.350686
												}
											}
										}
									}
								}
							}
						}
					}
				}
				JOINT mixamorig:LeftShoulder
				{
					OFFSET 4.570447 11.014725 -2.160855
					CHANNELS 6 Xposition Yposition Zposition Xrotation Yrotation Zrotation
					JOINT mixamorig:LeftArm
					{
						OFFSET 10.592371 -0.524597 -2.232119
						CHANNELS 6 Xposition Yposition Zposition Xrotation Yrotation Zrotation
						JOINT mixamorig:LeftForeArm
						{
							OFFSET 27.841532 -0.000031 0.000026
							CHANNELS 6 Xposition Yposition Zposition Xrotation Yrotation Zrotation
							JOINT mixamorig:LeftHand
							{
								OFFSET 28.328846 -0.000061 0.000022
								CHANNELS 6 Xposition Yposition Zposition Xrotation Yrotation Zrotation
								JOINT mixamorig:LeftHandThumb1
								{
									OFFSET 2.466141 -1.576172 2.681732
									CHANNELS 6 Xposition Yposition Zposition Xrotation Yrotation Zrotation
									JOINT mixamorig:LeftHandThumb2
									{
										OFFSET 3.217812 -1.872070 1.916482
										CHANNELS 6 Xposition Yposition Zposition Xrotation Yrotation Zrotation
										JOINT mixamorig:LeftHandThumb3
										{
											OFFSET 2.656029 -1.528778 1.514513
											CHANNELS 6 Xposition Yposition Zposition Xrotation Yrotation Zrotation
											JOINT mixamorig:LeftHandThumb4
											{
												OFFSET 2.020889 -1.154053 1.115139
												CHANNELS 6 Xposition Yposition Zposition Xrotation Yrotation Zrotation
												End Site
												{
													OFFSET 190.885437 -115.081749 130.048782
												}
											}
										}
									}
								}
								JOINT mixamorig:LeftHandIndex1
								{
									OFFSET 9.109314 -0.518021 2.259871
									CHANNELS 6 Xposition Yposition Zposition Xrotation Yrotation Zrotation
									JOINT mixamorig:LeftHandIndex2
									{
										OFFSET 3.699989 0.000000 -0.000322
										CHANNELS 6 Xposition Yposition Zposition Xrotation Yrotation Zrotation
										JOINT mixamorig:LeftHandIndex3
										{
											OFFSET 2.850006 0.000000 0.000352
											CHANNELS 6 Xposition Yposition Zposition Xrotation Yrotation Zrotation
											JOINT mixamorig:LeftHandIndex4
											{
												OFFSET 2.774864 -0.000031 -0.000027
												CHANNELS 6 Xposition Yposition Zposition Xrotation Yrotation Zrotation
												End Site
												{
													OFFSET 277.486267 0.000000 -0.009857
												}
											}
										}
									}
								}
								JOINT mixamorig:LeftHandMiddle1
								{
									OFFSET 9.533394 0.000061 0.000044
									CHANNELS 6 Xposition Yposition Zposition Xrotation Yrotation Zrotation
									JOINT mixamorig:LeftHandMiddle2
									{
										OFFSET 3.699989 -0.000015 -0.000231
										CHANNELS 6 Xposition Yposition Zposition Xrotation Yrotation Zrotation
										JOINT mixamorig:LeftHandMiddle3
										{
											OFFSET 2.949997 -0.000015 -0.000059
											CHANNELS 6 Xposition Yposition Zposition Xrotation Yrotation Zrotation
											JOINT mixamorig:LeftHandMiddle4
											{
												OFFSET 2.952896 0.000031 0.000063
												CHANNELS 6 Xposition Yposition Zposition Xrotation Yrotation Zrotation
												End Site
												{
													OFFSET 295.289337 0.000000 0.022810
												}
											}
										}
									}
								}
								JOINT mixamorig:LeftHandRing1
								{
									OFFSET 9.104523 -0.042999 -1.865074
									CHANNELS 6 Xposition Yposition Zposition Xrotation Yrotation Zrotation
									JOINT mixamorig:LeftHandRing2
									{
										OFFSET 3.150009 -0.000031 0.000043
										CHANNELS 6 Xposition Yposition Zposition Xrotation Yrotation Zrotation
										JOINT mixamorig:LeftHandRing3
										{
											OFFSET 2.949982 -0.000015 0.000040
											CHANNELS 6 Xposition Yposition Zposition Xrotation Yrotation Zrotation
											JOINT mixamorig:LeftHandRing4
											{
												OFFSET 2.644348 0.000000 0.000057
												CHANNELS 6 Xposition Yposition Zposition Xrotation Yrotation Zrotation
												End Site
												{
													OFFSET 264.434631 0.000000 0.012105
												}
											}
										}
									}
								}
								JOINT mixamorig:LeftHandPinky1
								{
									OFFSET 8.077789 -0.486847 -3.806259
									CHANNELS 6 Xposition Yposition Zposition Xrotation Yrotation Zrotation
									JOINT mixamorig:LeftHandPinky2
									{
										OFFSET 3.599953 0.000031 0.014727
										CHANNELS 6 Xposition Yposition Zposition Xrotation Yrotation Zrotation
										JOINT mixamorig:LeftHandPinky3
										{
											OFFSET 2.100021 0.000015 0.007705
											CHANNELS 6 Xposition Yposition Zposition Xrotation Yrotation Zrotation
											JOINT mixamorig:LeftHandPinky4
											{
												OFFSET 2.125504 0.000031 0.007517
												CHANNELS 6 Xposition Yposition Zposition Xrotation Yrotation Zrotation
												End Site
												{
													OFFSET 212.550781 0.000000 0.625752
												}
											}
										}
									}
								}
							}
						}
					}
				}
			}
		}
	}
	JOINT mixamorig:RightUpLeg
	{
		OFFSET -8.207787 -6.751648 -1.599560
		CHANNELS 6 Xposition Yposition Zposition Xrotation Yrotation Zrotation
		JOINT mixamorig:RightLeg
		{
			OFFSET -0.000002 -44.370117 0.345942
			CHANNELS 6 Xposition Yposition Zposition Xrotation Yrotation Zrotation
			JOINT mixamorig:RightFoot
			{
				OFFSET 0.000003 -44.423679 -3.043532
				CHANNELS 6 Xposition Yposition Zposition Xrotation Yrotation Zrotation
				JOINT mixamorig:RightToeBase
				{
					OFFSET -0.000002 -8.728671 10.710558
					CHANNELS 6 Xposition Yposition Zposition Xrotation Yrotation Zrotation
					JOINT mixamorig:RightToe_End
					{
						OFFSET -0.000001 -0.000679 9.278119
						CHANNELS 6 Xposition Yposition Zposition Xrotation Yrotation Zrotation
						End Site
						{
							OFFSET 0.000000 -0.067690 927.812134
						}
					}
				}
			}
		}
	}
	JOINT mixamorig:LeftUpLeg
	{
		OFFSET 8.207793 -6.751686 -1.599556
		CHANNELS 6 Xposition Yposition Zposition Xrotation Yrotation Zrotation
		JOINT mixamorig:LeftLeg
		{
			OFFSET -0.000004 -44.370014 0.346954
			CHANNELS 6 Xposition Yposition Zposition Xrotation Yrotation Zrotation
			JOINT mixamorig:LeftFoot
			{
				OFFSET -0.000001 -44.423672 -3.044401
				CHANNELS 6 Xposition Yposition Zposition Xrotation Yrotation Zrotation
				JOINT mixamorig:LeftToeBase
				{
					OFFSET -0.000002 -8.728669 10.710558
					CHANNELS 6 Xposition Yposition Zposition Xrotation Yrotation Zrotation
					JOINT mixamorig:LeftToe_End
					{
						OFFSET -0.000003 -0.000679 9.278133
						CHANNELS 6 Xposition Yposition Zposition Xrotation Yrotation Zrotation
						End Site
						{
							OFFSET 0.000000 -0.068021 927.813477
						}
					}
				}
			}
		}
	}
}
MOTION
Frames: 3
Frame Time: 0.033333
0.000006 104.270477 1.554256 0.000010 0.000003 -0.000113 -0.000005 10.181587 0.131522 0.000001 -0.000003 0.000084 -0.000000 9.893967 -1.470711 0.000001 0.000000 -0.000000 -0.000000 9.220802 -1.370642 0.000000 -0.000000 -0.000000 0.000001 16.740433 -2.049030 0.000000 -0.000000 -0.000000 0.000000 9.617859 1.685014 0.000000 0.000000 0.000000 0.000002 22.037384 7.501101 0.000000 -0.000000 0.000000 -4.569968 11.014880 -2.160881 0.000008 0.000001 -0.000038 -10.592783 -0.524849 -2.231750 76.147498 63.758457 -51.951184 -27.841494 -0.000002 0.000579 35.312249 101.775003 -42.759692 -28.328840 0.000023 0.000012 -0.000318 -0.000045 0.000009 -2.464632 -1.574233 2.682108 92.766140 -146.676427 146.565901 -3.214919 -1.873040 1.924580 68.977063 220.727207 127.554302 -2.654642 -1.528284 1.512938 73.478055 212.841057 133.444671 -2.018823 -1.151996 1.108058 -0.000004 0.000001 0.000004 -9.108041 -0.517777 2.260424 4.098456 167.105373 -35.346697 -3.699700 0.000049 0.001799 0.183394 167.250146 -1.455919 -2.849847 -0.000025 0.000060 -3.945114 170.354275 44.421757 -2.772172 0.000001 -0.000022 -0.000000 0.000004 0.000000 -9.532358 -0.000097 0.000554 175.872426 8.612113 -130.674879 -3.699721 0.000017 0.004283 -0.216508 173.552798 5.322399 -2.949915 -0.000045 -0.001473 -4.584239 173.183872 67.928827 -2.946622 -0.000001 -0.000154 -0.000001 -0.000006 -0.000001 -9.103461 -0.043129 -1.864555 174.333871 12.292720 -130.239277 -3.379191 -0.000115 -0.001044 -18.690939 -15.248233 -2.519435 -2.889636 -0.000049 0.000362 -8.483729 -15.473146 -1.146071 -2.638808 0.000001 0.000939 0.000002 0.000000 -0.000000 -8.076437 -0.486706 -3.805702 179.058450 8.859227 -166.185182 -3.599842 -0.000167 -0.003741 -24.541959 -28.730436 -6.523912 -2.099864 -0.000065 -0.005795 -10.194297 -22.963514 -2.133899 -2.115770 -0.000055 -0.003677 0.000000 0.000001 -0.000002 4.570446 11.014691 -2.160851 -0.000018 0.000010 -0.000021 10.592516 -0.524530 -2.232398 65.234338 -62.981038 42.812022 27.841770 -0.000047 -0.000133 43.060313 -100.023722 50.381541 28.328836 -0.000015 0.000022 0.000018 -0.000090 -0.000002 2.466194 -1.576098 2.681884 -87.621294 27.274803 31.930021 3.217807 -1.871997 1.916538 243.685577 40.283032 56.000209 2.656044 -1.528795 1.514609 408.423073 138.117831 249.982082 2.020899 -1.154066 1.115147 -0.000000 0.000002 0.000002 9.109162 -0.518009 2.259948 -179.129006 -15.418208 -173.641946 3.699870 -0.000052 -0.000247 -181.394812 -13.199600 -191.879029 2.849923 -0.000015 0.000422 -182.105506 -10.920277 -201.777189 2.774880 -0.000044 -0.000026 -0.000002 -0.000002 0.000003 9.533240 0.000052 0.000115 179.885203 -13.032727 178.931777 3.699770 0.000004 -0.000154 181.293779 -8.394549 -162.533490 2.949761 0.000057 0.000026 -176.816167 -9.808121 215.912156 2.952870 -0.000043 0.000062 0.000002 0.000001 0.000001 9.104506 -0.043037 -1.865022 177.251482 -12.530527 155.363963 3.150044 0.000056 0.000109 -179.332504 0.731374 94.979518 2.949943 0.000401 0.000133 -171.876028 -0.762095 -10.719152 2.644321 0.000045 0.000063 -0.000003 -0.000002 -0.000001 8.077702 -0.486906 -3.806191 177.872155 -13.762126 166.753741 3.600073 0.000254 0.014814 8.219661 175.331448 -127.707080 2.100089 0.000275 0.007813 -342.490629 173.321569 -141.644367 2.125503 -0.000027 0.007523 -0.000001 -0.000000 0.000003 -8.207786 -6.751667 -1.599560 -0.077001 -0.000003 0.000080 -0.000002 -44.370110 0.345938 0.153719 -0.000000 -0.000000 0.000000 -44.423679 -3.043532 -0.076700 0.000000 -0.000002 -0.000006 -8.728667 10.710559 -0.000009 -0.000000 -0.000000 -0.000001 -0.000679 9.278123 0.000000 -0.000000 -0.000000 8.207792 -6.751710 -1.599556 -0.074518 -0.000003 0.000081 -0.000002 -44.370014 0.346960 0.148822 0.000002 0.000000 -0.000001 -44.423664 -3.044403 -0.074314 0.000000 -0.000002 -0.000004 -8.728671 10.710558 0.000007 -0.000000 -0.000000 0.000000 -0.000680 9.278137 -0.000000 0.000000 -0.000001 
0.000006 104.270477 1.554256 0.000010 0.000003 -0.000113 -0.000005 10.181587 0.131522 0.000001 -0.000003 0.000084 -0.000000 9.893967 -1.470711 0.000001 0.000000 -0.000000 -0.000000 9.220802 -1.370642 0.000000 -0.000000 -0.000000 0.000001 16.740433 -2.049030 0.000000 -0.000000 -0.000000 0.000000 9.617859 1.685014 0.000000 0.000000 0.000000 0.000002 22.037384 7.501101 0.000000 -0.000000 0.000000 -4.569968 11.014880 -2.160881 0.000008 0.000001 -0.000038 -10.592799 -0.524849 -2.231762 75.865616 60.580875 -48.956668 -27.841490 0.000003 0.000585 27.974655 102.418632 -34.437728 -28.328831 -0.000005 0.000018 -0.000316 -0.000045 0.000008 -2.464608 -1.574237 2.682104 93.216018 -144.759289 146.259895 -3.214964 -1.873066 1.924572 72.622847 215.980622 132.327730 -2.654710 -1.528279 1.512917 81.617284 205.055598 141.758090 -2.018830 -1.151981 1.108052 -0.000004 -0.000000 0.000000 -9.108018 -0.517813 2.260419 2.473206 167.223781 -22.087491 -3.699693 0.000102 0.001807 2.603005 167.731045 -23.720526 -2.849810 0.000017 0.000056 -1.862152 171.004591 23.358564 -2.772167 -0.000001 -0.000021 0.000001 0.000001 -0.000002 -9.532413 -0.000096 0.000549 173.755327 9.193776 -113.328193 -3.699728 -0.000048 0.004294 -0.612277 174.498561 14.537078 -2.949963 -0.000020 -0.001496 -5.007251 175.037654 90.655598 -2.946640 0.000014 -0.000164 -0.000000 0.000004 -0.000000 -9.103395 -0.043107 -1.864565 176.911202 10.523605 -146.902220 -3.379163 -0.000128 -0.001042 -27.475051 -20.384466 -5.026930 -2.889623 -0.000031 0.000347 -10.223955 -19.080808 -1.712282 -2.638801 -0.000000 0.000941 -0.000000 -0.000001 0.000000 -8.076415 -0.486518 -3.805710 183.444183 5.860631 -240.133441 -3.599807 -0.000194 -0.003712 -33.826812 -35.412639 -11.282807 -2.099838 -0.000044 -0.005795 -9.013556 -27.935685 -2.311017 -2.115777 -0.000044 -0.003682 -0.000000 -0.000003 -0.000005 4.570446 11.014691 -2.160851 -0.000018 0.000010 -0.000021 10.592512 -0.524537 -2.232398 65.367178 -61.459490 41.753370 27.841772 -0.000072 -0.000121 41.944280 -100.644251 49.599393 28.328838 -0.000029 0.000029 0.000017 -0.000089 0.000000 2.466187 -1.576104 2.681896 -75.432691 19.395398 24.221748 3.217836 -1.871996 1.916516 262.367537 36.076458 41.474367 2.656025 -1.528769 1.514596 427.937252 140.959054 233.198778 2.020887 -1.154088 1.115147 0.000005 0.000002 0.000004 9.109098 -0.517976 2.259953 -177.530236 -10.169508 -152.844635 3.699914 -0.000049 -0.000251 -181.926105 -9.537288 -202.591552 2.850091 0.000062 0.000405 -185.953266 -9.518972 -243.987526 2.774878 -0.000046 -0.000026 -0.000001 0.000001 0.000001 9.533166 0.000113 0.000152 184.967943 -18.787332 209.356363 3.699995 -0.000010 -0.000180 173.668816 -161.748005 -181.018304 2.950016 -0.000011 -0.000073 -175.369574 -178.387903 180.065329 2.952877 -0.000010 0.000059 0.000003 0.000001 0.000001 9.104275 -0.042849 -1.864962 190.605609 -15.968450 246.991361 3.149984 0.000016 -0.000031 -174.069748 153.400940 178.596729 2.949954 -0.000002 -0.000035 7.337405 17.750010 -1.147405 2.644331 0.000034 0.000061 0.000004 0.000001 0.000001 8.077570 -0.486522 -3.806133 195.264317 -9.435310 295.839617 3.599921 -0.000007 0.014689 176.000096 149.838532 -179.048969 2.099984 0.000010 0.007639 -173.160472 159.611986 -181.281007 2.125497 -0.000027 0.007528 0.000000 0.000001 0.000006 -8.207786 -6.751667 -1.599560 -0.077001 -0.000003 0.000080 -0.000002 -44.370110 0.345938 0.153719 -0.000000 -0.000000 0.000000 -44.423679 -3.043532 -0.076700 0.000000 -0.000002 -0.000006 -8.728667 10.710559 -0.000009 -0.000000 -0.000000 -0.000001 -0.000679 9.278123 0.000000 -0.000000 -0.000000 8.207792 -6.751710 -1.599556 -0.074518 -0.000003 0.000081 -0.000002 -44.370014 0.346960 0.148822 0.000002 0.000000 -0.000001 -44.423664 -3.044403 -0.074314 0.000000 -0.000002 -0.000004 -8.728671 10.710558 0.000007 -0.000000 -0.000000 0.000000 -0.000680 9.278137 -0.000000 0.000000 -0.000001 
0.000006 104.270477 1.554256 0.000010 0.000003 -0.000113 -0.000005 10.181587 0.131522 0.000001 -0.000003 0.000084 -0.000000 9.893967 -1.470711 0.000001 0.000000 -0.000000 -0.000000 9.220802 -1.370642 0.000000 -0.000000 -0.000000 0.000001 16.740433 -2.049030 0.000000 -0.000000 -0.000000 0.000000 9.617859 1.685014 0.000000 0.000000 0.000000 0.000002 22.037384 7.501101 0.000000 -0.000000 0.000000 -4.569968 11.014880 -2.160881 0.000008 0.000001 -0.000038 -10.592812 -0.524839 -2.231772 75.401074 57.300581 -45.786819 -27.841478 -0.000003 0.000585 24.100095 103.139360 -30.116531 -28.328823 0.000020 0.000012 -0.000317 -0.000045 0.000008 -2.464592 -1.574222 2.682085 94.550589 -140.912294 145.943206 -3.214923 -1.873038 1.924554 70.823461 222.558709 127.979003 -2.654663 -1.528290 1.512906 79.094062 212.618038 137.066378 -2.018833 -1.152017 1.108059 -0.000002 0.000003 0.000002 -9.108092 -0.517681 2.260426 10.545521 168.047160 -82.822969 -3.699819 0.000220 0.001804 10.850104 169.247184 -90.508947 -2.849782 0.000212 0.000058 6.652349 171.462514 -75.808666 -2.772163 -0.000000 -0.000019 -0.000003 -0.000000 -0.000000 -9.532310 -0.000103 0.000555 177.105398 8.080019 -142.574994 -3.699685 0.000163 0.004296 1.919452 175.974483 -49.978079 -2.949930 -0.000045 -0.001477 -3.150405 175.682957 72.409950 -2.946614 0.000015 -0.000155 -0.000006 -0.000002 0.000005 -9.103394 -0.043093 -1.864560 177.854970 9.572362 -154.294943 -3.379148 -0.000124 -0.001062 -20.750255 -22.782871 -4.219377 -2.889620 0.000001 0.000334 -6.174386 -19.147553 -1.033335 -2.638812 0.000001 0.000941 -0.000001 -0.000001 0.000001 -8.076424 -0.486528 -3.805703 183.561553 6.231227 -238.753388 -3.599805 -0.000184 -0.003716 -29.837289 -35.298612 -9.870939 -2.099841 -0.000048 -0.005799 -7.752955 -26.366996 -1.878457 -2.115772 -0.000056 -0.003692 -0.000001 -0.000003 -0.000004 4.570446 11.014691 -2.160851 -0.000018 0.000010 -0.000021 10.592518 -0.524520 -2.232395 65.587472 -60.972764 41.545216 27.841761 -0.000045 -0.000131 44.985733 -102.091910 54.240441 28.328823 -0.000029 0.000028 0.000018 -0.000089 0.000000 2.466185 -1.576110 2.681886 -63.491062 -1.537812 16.788035 3.217842 -1.871959 1.916579 278.614044 23.422882 28.410209 2.656066 -1.528744 1.514623 440.130560 148.906908 221.504169 2.020891 -1.154083 1.115157 0.000002 0.000004 0.000006 9.109127 -0.517722 2.260028 -153.222986 -16.081194 -61.366456 3.699743 0.000243 -0.000182 -162.477892 -15.529176 -83.006654 2.849767 0.000277 0.000473 -167.135357 -10.978267 -80.887144 2.774885 -0.000033 -0.000044 0.000006 0.000001 0.000001 9.533250 0.000365 0.000237 218.240417 -17.240012 312.771301 3.699861 0.000333 -0.000046 31.478539 -167.300388 -223.089961 2.949884 0.000370 0.000075 -338.079146 -172.898835 144.461984 2.952874 -0.000030 0.000064 0.000003 -0.000001 -0.000000 9.104421 -0.042824 -1.864839 249.335127 -27.404684 321.159648 3.150011 0.000005 0.000062 -189.120070 172.845833 180.571118 2.949956 0.000027 -0.000028 3.207042 18.215015 -0.514451 2.644318 0.000028 0.000046 -0.000000 -0.000001 -0.000000 8.077730 -0.486689 -3.805995 263.837176 -15.456520 342.448118 3.599944 0.000008 0.014727 172.578062 161.732924 -178.899689 2.099979 0.000006 0.007640 -175.854135 156.778099 -180.921548 2.125511 -0.000021 0.007538 -0.000002 -0.000005 0.000003 -8.207786 -6.751667 -1.599560 -0.077001 -0.000003 0.000080 -0.000002 -44.370110 0.345938 0.153719 -0.000000 -0.000000 0.000000 -44.423679 -3.043532 -0.076700 0.000000 -0.000002 -0.000006 -8.728667 10.710559 -0.000009 -0.000000 -0.000000 -0.000001 -0.000679 9.278123 0.000000 -0.000000 -0.000000 8.207792 -6.751710 -1.599556 -0.074518 -0.000003 0.000081 -0.000002 -44.370014 0.346960 0.148822 0.000002 0.000000 -0.000001 -44.423664 -3.044403 -0.074314 0.000000 -0.000002 -0.000004 -8.728671 10.710558 0.000007 -0.000000 -0.000000 0.000000 -0.000680 9.278137 -0.000000 0.000000 -0.000001 
